#!OML:ASF I:\Actors\actors\Patient Classification 2\Patient 1\Session 1\actor1.ASF
:FULLY-SPECIFIED
:DEGREES
272
root 0.269281 18.7758 5.11742 12.4785 15.1556 -0.634886
lowerback 23.4178 0.911242 2.6454
upperback 3.11413 2.00797 1.18486
thorax -9.591 0.885258 -0.830665
lowerneck -9.6337 -2.95282 -3.06602
upperneck 1.03588 -3.75785 4.40672
head 2.16272 -1.76359 1.77025
rclavicle -5.96354e-015 1.51076e-014
rhumerus 38.8999 53.7847 -71.9072
rradius 144.646
rwrist 4.00112
rhand -36.0871 -24.0683
rfingers 7.12502
rthumb -9.19381 -53.8479
lclavicle -5.96354e-015 1.51076e-014
lhumerus 43.0527 -52.7098 66.0776
lradius 142.858
lwrist 16.4433
lhand -26.1547 -58.9965
lfingers 7.12502
lthumb 0.396349 -29.0171
rfemur -3.29712 -11.3446 13.1534
rtibia 3.18055e-015
rfoot -19.1972 -16.4606
rtoes -2.66337
lfemur -27.8711 -9.86198 -13.7385
ltibia 30.1312
lfoot -15.0762 0.0831383
ltoes -55.0123
273
root 0.27787 18.7761 5.10955 12.5239 15.1877 -0.57151
lowerback 23.4575 0.896994 2.58106
upperback 3.10273 1.98106 1.23894
thorax -9.63008 0.875325 -0.726925
lowerneck -9.59909 -3.0571 -3.35132
upperneck 1.07501 -3.87761 4.66974
head 2.19087 -1.81778 1.90245
rclavicle -5.4467e-014 2.38542e-015
rhumerus 39.053 53.8708 -71.7812
rradius 144.755
rwrist 3.43516
rhand -35.6781 -24.2692
rfingers 7.12502
rthumb -8.79921 -54.0657
lclavicle -5.4467e-014 2.38542e-015
lhumerus 42.9054 -52.6918 66.2639
lradius 142.991
lwrist 17.1295
lhand -26.1458 -58.8674
lfingers 7.12502
lthumb 0.404943 -28.888
rfemur -3.337 -11.3967 13.0678
rtibia 1.59028e-015
rfoot -19.1869 -16.4443
rtoes -2.53682
lfemur -27.9334 -9.8738 -13.8234
ltibia 30.1238
lfoot -15.0458 0.0300586
ltoes -54.9756
274
root 0.286943 18.7766 5.10393 12.5622 15.2274 -0.5247
lowerback 23.2875 0.889933 2.52369
upperback 3.21151 1.95721 1.31541
thorax -9.42349 0.87218 -0.597797
lowerneck -9.59976 -3.15299 -3.54797
upperneck 1.03789 -3.98934 4.84268
head 2.19497 -1.87005 1.98933
rclavicle 1.51076e-014 -1.11319e-014
rhumerus 39.3164 53.7776 -71.6213
rradius 144.902
rwrist 2.36638
rhand -35.2544 -24.0851
rfingers 7.12502
rthumb -8.39026 -53.8984
lclavicle 1.51076e-014 -1.11319e-014
lhumerus 43.0033 -52.5676 66.3068
lradius 143.083
lwrist 17.7505
lhand -26.2386 -58.6627
lfingers 7.12502
lthumb 0.315292 -28.6832
rfemur -3.35779 -11.4522 13.0011
rtibia 0
rfoot -19.1851 -16.4338
rtoes -2.59948
lfemur -27.9825 -9.82039 -13.9151
ltibia 30.1171
lfoot -14.9926 -0.0481981
ltoes -55.0735
275
root 0.29706 18.7775 5.10077 12.6054 15.2556 -0.453556
lowerback 23.3987 0.884942 2.57789
upperback 3.1075 1.96671 1.27682
thorax -9.5954 0.870224 -0.677599
lowerneck -9.44088 -3.2752 -3.59614
upperneck 1.12861 -4.16298 5.03498
head 2.21211 -1.95295 2.05415
rclavicle -6.36111e-015 1.59028e-015
rhumerus 38.885 53.5593 -72.1678
rradius 145.074
rwrist 1.04857
rhand -34.7368 -23.451
rfingers 7.12502
rthumb -7.89073 -53.2837
lclavicle -6.36111e-015 1.59028e-015
lhumerus 42.7749 -52.7779 66.4737
lradius 143.2
lwrist 18.3984
lhand -26.4621 -58.4128
lfingers 7.12502
lthumb 0.0994523 -28.4331
rfemur -3.37178 -11.5028 12.8983
rtibia -6.36111e-015
rfoot -19.2175 -16.4176
rtoes -2.53208
lfemur -28.019 -9.74577 -14.0439
ltibia 30.1118
lfoot -14.9381 -0.159922
ltoes -55.0834
276
root 0.307716 18.7783 5.0977 12.6492 15.2884 -0.400191
lowerback 23.3591 0.906704 2.71095
upperback 3.06272 2.02002 1.20394
thorax -9.61535 0.888214 -0.850033
lowerneck -9.11875 -3.44963 -3.55962
upperneck 1.05136 -4.41523 5.24791
head 2.14564 -2.07736 2.10786
rclavicle -1.98785e-015 -6.36111e-015
rhumerus 38.5066 53.0761 -72.7076
rradius 145.177
rwrist -0.0696304
rhand -34.2174 -22.9046
rfingers 7.12502
rthumb -7.38941 -52.7555
lclavicle -1.98785e-015 -6.36111e-015
lhumerus 42.7112 -53.0861 66.4991
lradius 143.367
lwrist 19.377
lhand -26.5698 -58.23
lfingers 7.12502
lthumb -0.00462724 -28.2502
rfemur -3.39402 -11.5552 12.8125
rtibia 1.59028e-015
rfoot -19.2194 -16.4169
rtoes -2.39803
lfemur -28.0631 -9.71969 -14.1426
ltibia 30.1115
lfoot -14.9063 -0.23764
ltoes -55.0012
277
root 0.319022 18.7792 5.09498 12.6844 15.335 -0.365929
lowerback 23.3754 0.834552 2.68454
upperback 3.10451 1.93213 1.32013
thorax -9.58532 0.851231 -0.679655
lowerneck -9.41963 -3.52046 -3.88075
upperneck 1.23949 -4.47969 5.40682
head 2.28299 -2.10175 2.21329
rclavicle -1.51076e-014 -1.66979e-014
rhumerus 38.7003 53.2645 -72.6663
rradius 145.238
rwrist -0.708107
rhand -33.8108 -22.6089
rfingers 7.12502
rthumb -6.99691 -52.4733
lclavicle -1.51076e-014 -1.66979e-014
lhumerus 42.633 -52.6457 66.7175
lradius 143.444
lwrist 20.499
lhand -26.7952 -57.9909
lfingers 7.12502
lthumb -0.22228 -28.0113
rfemur -3.40498 -11.6162 12.7492
rtibia 1.11319e-014
rfoot -19.1963 -16.4206
rtoes -2.44516
lfemur -28.0996 -9.6759 -14.2267
ltibia 30.1145
lfoot -14.8773 -0.335236
ltoes -54.9246
278
root 0.328976 18.7794 5.09299 12.7301 15.3695 -0.350663
lowerback 23.3829 0.790844 2.74795
upperback 3.07518 1.89735 1.36556
thorax -9.62275 0.832641 -0.655464
lowerneck -9.50835 -3.5913 -4.08403
upperneck 1.42338 -4.56466 5.60716
head 2.3797 -2.13725 2.31255
rclavicle 5.12864e-014 -1.98785e-014
rhumerus 38.6057 53.777 -72.8145
rradius 145.292
rwrist -0.77273
rhand -33.5001 -22.4736
rfingers 7.12502
rthumb -6.697 -52.3477
lclavicle 5.12864e-014 -1.98785e-014
lhumerus 42.5595 -52.108 66.9477
lradius 143.438
lwrist 21.6934
lhand -27.2336 -57.6944
lfingers 7.12502
lthumb -0.645696 -27.7156
rfemur -3.43281 -11.6625 12.7129
rtibia 2.70347e-014
rfoot -19.2173 -16.3911
rtoes -2.35999
lfemur -28.1492 -9.65192 -14.2756
ltibia 30.1205
lfoot -14.8617 -0.403149
ltoes -54.8228
279
root 0.338256 18.7789 5.09059 12.7542 15.3989 -0.328601
lowerback 23.3789 0.766208 2.83264
upperback 3.04932 1.88917 1.38383
thorax -9.64771 0.825435 -0.681312
lowerneck -9.48214 -3.6804 -4.23514
upperneck 1.55981 -4.68182 5.7998
head 2.43965 -2.19056 2.39918
rclavicle 2.18663e-014 1.66979e-014
rhumerus 38.4651 54.0199 -73.0132
rradius 145.348
rwrist -0.989726
rhand -33.2286 -22.4638
rfingers 7.12502
rthumb -6.43488 -52.3461
lclavicle 2.18663e-014 1.66979e-014
lhumerus 42.4196 -51.8379 67.1764
lradius 143.485
lwrist 22.7742
lhand -27.4237 -57.4688
lfingers 7.12502
lthumb -0.829292 -27.4907
rfemur -3.43863 -11.7028 12.6625
rtibia 1.11319e-014
rfoot -19.2745 -16.3531
rtoes -2.02674
lfemur -28.1781 -9.68634 -14.3216
ltibia 30.1293
lfoot -14.8665 -0.417617
ltoes -54.7223
280
root 0.34802 18.7785 5.0873 12.738 15.408 -0.251051
lowerback 23.4521 0.7621 2.82427
upperback 3.04127 1.8886 1.41675
thorax -9.69736 0.825241 -0.641483
lowerneck -9.46045 -3.80017 -4.37099
upperneck 1.6487 -4.83794 5.94637
head 2.48488 -2.26483 2.46524
rclavicle 0 -1.74931e-014
rhumerus 38.3555 54.0735 -73.1607
rradius 145.41
rwrist -1.44806
rhand -32.9618 -22.4332
rfingers 7.12502
rthumb -6.17736 -52.3231
lclavicle 0 -1.74931e-014
lhumerus 42.2197 -51.8203 67.4328
lradius 143.57
lwrist 23.7089
lhand -27.5764 -57.3175
lfingers 7.12502
lthumb -0.976782 -27.34
rfemur -3.39217 -11.7293 12.5317
rtibia 3.18055e-014
rfoot -19.3254 -16.3228
rtoes -1.66666
lfemur -28.1476 -9.71618 -14.4407
ltibia 30.1395
lfoot -14.8708 -0.460052
ltoes -54.6495
281
root 0.357144 18.7781 5.08455 12.7308 15.3806 -0.166485
lowerback 23.5122 0.773884 2.77183
upperback 3.03613 1.8973 1.45379
thorax -9.73811 0.831304 -0.574482
lowerneck -9.37903 -3.89404 -4.52385
upperneck 1.67437 -4.9606 6.16532
head 2.49992 -2.32173 2.56163
rclavicle -7.63333e-014 -1.43125e-014
rhumerus 38.2502 54.1316 -73.3249
rradius 145.487
rwrist -1.99646
rhand -32.6329 -22.2774
rfingers 7.12502
rthumb -5.8598 -52.1764
lclavicle -7.63333e-014 -1.43125e-014
lhumerus 42.0628 -51.8726 67.6458
lradius 143.63
lwrist 24.6261
lhand -27.961 -56.9028
lfingers 7.12502
lthumb -1.34828 -26.9273
rfemur -3.36153 -11.7226 12.392
rtibia -7.95139e-015
rfoot -19.3749 -16.2838
rtoes -1.28844
lfemur -28.1192 -9.6522 -14.5833
ltibia 30.1476
lfoot -14.8442 -0.55416
ltoes -54.6157
282
root 0.366159 18.7776 5.08226 12.7681 15.3516 -0.121147
lowerback 23.4723 0.783715 2.78164
upperback 3.03372 1.91461 1.48719
thorax -9.72001 0.840034 -0.547795
lowerneck -9.18758 -3.96228 -4.55414
upperneck 1.6105 -5.05885 6.29776
head 2.45523 -2.37054 2.6085
rclavicle 3.02153e-014 2.38542e-015
rhumerus 38.1215 54.1769 -73.5572
rradius 145.574
rwrist -2.53862
rhand -32.2085 -22.1282
rfingers 7.12502
rthumb -5.45 -52.0381
lclavicle 3.02153e-014 2.38542e-015
lhumerus 41.9791 -51.9452 67.803
lradius 143.706
lwrist 25.7301
lhand -28.2451 -56.2153
lfingers 7.12502
lthumb -1.6226 -26.2418
rfemur -3.38841 -11.7119 12.3112
rtibia -1.11319e-014
rfoot -19.4023 -16.2676
rtoes -1.02974
lfemur -28.1513 -9.5147 -14.6899
ltibia 30.1566
lfoot -14.7945 -0.672442
ltoes -54.5543
